<?xml version="1.0" encoding="utf-8"?>
<!-- Generator: Adobe Illustrator 19.0.0, SVG Export Plug-In . SVG Version: 6.00 Build 0)  -->
<svg version="1.1" id="Layer_1" xmlns="http://www.w3.org/2000/svg" xmlns:xlink="http://www.w3.org/1999/xlink" x="0px" y="0px"
	 width="100px" height="22.2px" viewBox="0 0 100 22.2" style="enable-background:new 0 0 100 22.2;" xml:space="preserve">
<style type="text/css">
	.st0{fill:#17C1A0;}
	.st1{fill:#FFFFFF;}
</style>
<g id="XMLID_1_">
	<path id="XMLID_2_" class="st0" d="M4,16.5c-0.9-0.7-1.4-1.9-1.4-3.5c0-1.4,0.3-2.9,0.9-4.6C4.1,6.6,5,5.2,6.2,4
		c1.2-1.2,2.6-1.8,4.1-1.8c0.6,0,1.1,0.1,1.5,0.2C11,2.7,10.2,3.6,9.4,4.8C8.7,6,8,7.4,7.6,9c-0.5,1.5-0.7,2.9-0.7,4.1
		c0,0.8,0.1,1.5,0.4,2c0.3,0.5,0.7,0.7,1.3,0.7c0.9,0,1.9-0.5,2.8-1.6c0.9-1.1,1.7-2.4,2.3-4.1c0.6-1.6,0.9-3.2,0.9-4.8
		c0-1-0.1-1.7-0.3-2.3c-0.2-0.6-0.6-1-1.1-1.3c-0.5-0.3-1.3-0.4-2.3-0.4C9.3,1.2,8,1.5,6.7,1.9C5.5,2.4,4.5,3.1,3.7,4
		C3,4.9,2.6,6,2.6,7.2c0,0.4,0,0.7,0.1,0.9c0.1,0.2,0.1,0.3,0.1,0.3c-1,0-1.7-0.2-2.2-0.5C0.2,7.6,0,7.1,0,6.5c0-1.1,0.5-2.1,1.6-3
		c1.1-1,2.5-1.8,4.3-2.4c1.8-0.6,3.6-0.9,5.6-0.9c2.4,0,4.1,0.5,5.2,1.6c1.1,1,1.6,2.5,1.6,4.3c0,1.6-0.4,3.4-1.1,5.1
		c-0.8,1.8-1.9,3.3-3.5,4.5C12,17,10,17.6,7.7,17.6C6.1,17.6,4.9,17.2,4,16.5z"/>
	<path id="XMLID_5_" class="st1" d="M26.1,16.9c-0.5-0.5-0.7-1.1-0.7-1.9c0-0.3,0-0.7,0.1-1.1c0.1-0.4,0.2-0.8,0.3-1.2
		s0.2-0.6,0.2-0.7c0.2-0.5,0.3-1.1,0.4-1.6c0.1-0.5,0.2-0.9,0.2-1.3c0-0.8-0.3-1.2-1-1.2c-0.5,0-0.9,0.2-1.3,0.6
		c-0.4,0.4-0.7,0.9-0.9,1.5l-1.9,7.4h-4.1l3-11.5h4.1l-0.3,1.2c1-0.9,2.1-1.3,3.3-1.3c1,0,1.7,0.2,2.3,0.6c0.6,0.4,0.9,1.1,0.9,2
		c0,0.4-0.1,0.9-0.2,1.5c-0.1,0.5-0.3,1.2-0.6,2c-0.2,0.5-0.3,0.9-0.4,1.4c-0.1,0.5-0.2,0.8-0.2,1.1c0,0.3,0.1,0.5,0.3,0.7
		c0.2,0.2,0.5,0.3,0.9,0.3c0.5,0,0.8,0,0.9-0.1c-0.1,0.8-0.5,1.4-1,1.8c-0.6,0.4-1.3,0.6-2.1,0.6C27.3,17.6,26.6,17.4,26.1,16.9z"/>
	<path id="XMLID_7_" class="st1" d="M52.5,16.9c-0.5-0.5-0.8-1.1-0.8-1.9c0-0.3,0-0.7,0.1-1.1c0.1-0.4,0.2-0.8,0.3-1.2
		c0.1-0.4,0.2-0.6,0.2-0.7c0.2-0.5,0.3-1.1,0.4-1.6S53,9.4,53,9.1c0-0.8-0.3-1.2-1-1.2c-0.5,0-0.9,0.2-1.3,0.6
		c-0.4,0.4-0.7,0.8-0.9,1.4c-0.6,2.4-1.2,4.9-1.7,7.5h-4.1l3.9-14.7c-0.7,0-1.9-0.2-3.8-0.4l-4,15.1h-4.1L40,2.1
		c-1.8,0.1-3.2,0.4-4.2,1.1c-1,0.7-1.5,1.9-1.5,3.6c0,0.6,0.1,1,0.2,1.2c0.1,0.2,0.2,0.3,0.2,0.4c-1,0-1.8-0.2-2.3-0.5
		c-0.5-0.3-0.8-0.9-0.8-1.7c0-1.1,0.4-2.1,1.1-3c0.7-0.9,1.8-1.6,3.3-2.2c1.5-0.6,3.4-0.8,5.6-0.8c0.4,0,1.2,0.1,2.4,0.2
		c2.3,0.3,4,0.4,5.3,0.4c1.6,0,2.8-0.2,3.5-0.6c-0.3,0.4-0.5,0.8-0.7,1.2c-0.2,0.4-0.4,1-0.7,1.9c-0.3,0.9-0.6,2.1-1,3.8
		c1-0.9,2.1-1.3,3.4-1.3c1,0,1.7,0.2,2.3,0.6c0.6,0.4,0.9,1.1,0.9,2c0,0.4-0.1,0.9-0.2,1.5c-0.1,0.5-0.3,1.2-0.6,2
		c-0.2,0.5-0.3,0.9-0.4,1.4c-0.1,0.5-0.2,0.8-0.2,1.1c0,0.3,0.1,0.5,0.3,0.7c0.2,0.2,0.5,0.3,0.9,0.3c0.6,0,1-0.2,1.4-0.5
		c0.3-0.3,0.7-0.8,1-1.5h1.2c-0.7,1.7-1.5,2.8-2.4,3.4C57,17.3,56,17.6,55,17.6C53.9,17.6,53,17.4,52.5,16.9z"/>
	<path id="XMLID_9_" class="st1" d="M60,16.7c-0.8-0.6-1.2-1.5-1.2-2.8c0-1.1,0.3-2.2,0.8-3.5c0.5-1.3,1.4-2.4,2.5-3.3
		c1.2-0.9,2.6-1.4,4.4-1.4c2.1,0,3.1,0.7,3.1,2.2c0,0.9-0.3,1.7-0.9,2.4c-0.6,0.7-1.4,1.3-2.4,1.7c-1,0.4-2.1,0.7-3.2,0.7
		c0,0.3-0.1,0.6-0.1,0.7c0,1.3,0.6,1.9,1.8,1.9c0.5,0,1.1-0.1,1.7-0.3c0.6-0.2,1.2-0.5,1.7-0.9c-0.5,2.3-2.2,3.4-4.9,3.4
		C61.8,17.6,60.7,17.3,60,16.7z M65.3,11.1c0.6-0.4,1.2-0.8,1.5-1.4c0.4-0.6,0.6-1.2,0.6-1.8c0-0.6-0.2-0.9-0.7-0.9
		c-0.7,0-1.3,0.5-2,1.5c-0.7,1-1.1,2.1-1.5,3.3C64,11.7,64.7,11.5,65.3,11.1z"/>
	<path id="XMLID_12_" class="st0" d="M72.9,21.4c-0.8-0.6-1.3-1.3-1.3-2.3c0-0.6,0.2-1.1,0.5-1.6c0.3-0.5,0.8-0.9,1.4-1.2
		c0.6-0.3,1.2-0.4,1.9-0.4c0.7,0,1.3,0.1,1.8,0.4c0.4,0.3,0.7,0.7,0.7,1.2c0,0.4-0.1,0.7-0.3,0.9c-0.2-0.2-0.4-0.3-0.7-0.4
		c-0.3-0.1-0.6-0.2-0.9-0.2c-0.6,0-1,0.2-1.4,0.5c-0.4,0.3-0.5,0.7-0.5,1.2c0,0.5,0.2,0.9,0.5,1.2c0.4,0.3,0.8,0.5,1.3,0.5
		c0.7,0,1.2-0.2,1.7-0.7c0.5-0.5,0.8-1.2,1.1-2.1l1.4-5.1h-0.1c-0.5,0.6-1.1,1-1.9,1.3c-0.7,0.3-1.5,0.5-2.4,0.5
		c-1.1,0-2.1-0.2-2.9-0.7c-0.8-0.5-1.5-1.2-1.9-2c-0.4-0.9-0.7-1.9-0.7-3.1c0-1.7,0.5-3.2,1.4-4.6c0.9-1.4,2.2-2.5,3.8-3.3
		C76.9,0.4,78.7,0,80.6,0c1.6,0,2.9,0.3,3.8,0.9c0.9,0.6,1.4,1.3,1.4,2.3c0,0.7-0.2,1.2-0.6,1.6c-0.4,0.4-0.9,0.6-1.6,0.6
		c-0.4,0-0.7-0.1-1-0.2c-0.3-0.1-0.6-0.3-0.8-0.5c0.3-0.2,0.6-0.5,0.9-0.9C83,3.4,83.1,3,83.1,2.5c0-0.5-0.2-0.8-0.5-1.1
		c-0.3-0.3-0.8-0.4-1.4-0.4c-1.1,0-2.2,0.4-3.2,1.2c-1,0.8-1.9,1.8-2.5,3.1c-0.6,1.3-0.9,2.6-0.9,4c0,1.2,0.2,2,0.7,2.6
		c0.5,0.6,1.1,0.9,2,0.9c1,0,1.9-0.4,2.7-1.3c0.8-0.9,1.4-2.2,1.9-3.8l3.4,0l-2.1,7.8c-0.6,2.3-1.5,4-2.6,5.1
		c-1.1,1.1-2.6,1.6-4.3,1.6C74.8,22.2,73.7,21.9,72.9,21.4z"/>
	<path id="XMLID_14_" class="st1" d="M86.9,16.7c-0.8-0.6-1.2-1.5-1.2-2.8c0-1.1,0.3-2.2,0.8-3.5C87,9.1,87.8,8,89,7.1
		c1.2-0.9,2.6-1.4,4.4-1.4c2.2,0,3.5,1,3.6,3.1c0.4-0.1,0.8-0.3,1.1-0.6c0.3-0.3,0.6-0.6,0.9-1h0.9c-0.5,0.8-1,1.5-1.4,1.9
		c-0.4,0.5-0.9,0.8-1.6,1.1c-0.1,1.4-0.5,2.7-1.1,3.8c-0.6,1.1-1.4,1.9-2.4,2.5c-1,0.6-2.1,0.9-3.3,0.9
		C88.9,17.6,87.8,17.3,86.9,16.7z M93.4,14.1c0.6-0.9,1-2.1,1.3-3.4c-0.5-0.1-0.7-0.5-0.7-1c0-0.6,0.3-1,0.8-1.2
		c0-0.5-0.1-0.8-0.3-1c-0.2-0.2-0.4-0.3-0.8-0.3c-0.6,0-1.2,0.4-1.8,1.1c-0.6,0.7-1,1.6-1.4,2.7c-0.4,1-0.5,1.9-0.5,2.7
		c0,0.7,0.1,1.2,0.3,1.5c0.2,0.3,0.6,0.4,1.1,0.4C92.1,15.5,92.8,15,93.4,14.1z"/>
</g>
</svg>
